<?xml version="1.0" encoding="UTF-8"?>
<!DOCTYPE svg PUBLIC "-//W3C//DTD SVG 1.1//EN" "http://www.w3.org/Graphics/SVG/1.1/DTD/svg11.dtd">
<!-- Creator: CorelDRAW -->
<svg xmlns="http://www.w3.org/2000/svg" xml:space="preserve" width="43.3492mm" height="43.3492mm" version="1.1" style="shape-rendering:geometricPrecision; text-rendering:geometricPrecision; image-rendering:optimizeQuality; fill-rule:evenodd; clip-rule:evenodd"
viewBox="0 0 4335 4335"
 xmlns:xlink="http://www.w3.org/1999/xlink">
 <defs>
  <style type="text/css">
   <![CDATA[
    .fil0 {fill:url(#id0)}
   ]]>
  </style>
  <linearGradient id="id0" gradientUnits="userSpaceOnUse" x1="2167.67" y1="314.56" x2="2167.67" y2="4020.36">
   <stop offset="0" style="stop-opacity:1; stop-color:#5CC6D0"/>
   <stop offset="0.490196" style="stop-opacity:1; stop-color:#A53692"/>
   <stop offset="1" style="stop-opacity:1; stop-color:#F06277"/>
  </linearGradient>
 </defs>
 <g id="Layer_x0020_1">
  <metadata id="CorelCorpID_0Corel-Layer"/>
  <path class="fil0" d="M2768 2347c-560,0 -1015,-454 -1015,-1014 0,-560 455,-1018 1015,-1018 560,0 1011,454 1011,1014 0,560 -451,1018 -1011,1018zm-2357 965c-160,0 -257,-195 -137,-327 109,-120 332,-51 335,130 0,109 -89,197 -194,197 0,0 0,0 -4,0zm11 -264c-105,0 -83,149 -4,141 112,-11 82,-141 4,-141zm-240 972c-91,0 -165,-70 -165,-162l-18 -1000c0,-92 71,-162 159,-166l500 -10c61,0 115,32 144,80 354,-172 571,-338 1004,-207l705 211c161,49 213,207 155,342 380,-84 800,-392 1187,-627 359,-218 687,333 327,546 -2529,1500 -2243,480 -3346,869 -20,68 -80,117 -155,117l-497 7zm642 -1131l16 878c383,-129 602,-89 836,-50 401,71 859,152 2438,-796 219,-134 18,-467 -201,-334 -109,67 -208,126 -307,190 -704,440 -1130,704 -2134,232 -76,-34 -17,-147 52,-109 367,173 649,243 899,236 7,0 10,-3 17,-3 126,0 182,-202 32,-247l-705 -211c-401,-119 -586,49 -943,214zm-163 -80l-500 10c-21,0 -39,18 -39,39l18 1004c0,21 18,39 39,39l500 -11c21,0 39,-18 39,-39l-18 -1004c0,-21 -17,-38 -39,-38zm2107 -1417c-218,0 -395,-176 -395,-391 0,-218 177,-394 395,-394 215,0 391,176 391,394 0,215 -173,391 -391,391zm0 -662c-148,0 -271,120 -271,271 0,148 119,268 271,268 148,0 268,-120 268,-268 0,-147 -120,-271 -268,-271zm662 1192c-356,-398 -975,-393 -1327,0 354,396 971,399 1327,0zm-1405 -101c398,-425 1077,-428 1481,2 390,-584 -21,-1385 -738,-1385 -713,0 -1132,797 -743,1383z"/>
 </g>
</svg>
