<?xml version="1.0" encoding="UTF-8" standalone="no"?> <svg id="Layer_1" data-name="Layer 1" xmlns="http://www.w3.org/2000/svg" viewBox="0 0 64 64"><defs><style>.cls-1{fill:#cac2a8;}.cls-2{fill:#dfdeed;}.cls-3{fill:#f73445;}.cls-4{fill:#fed966;}.cls-5{fill:#92b1f9;}</style></defs><title>enterprise-organization-business-company-team</title><path class="cls-1" d="M45,18V42.779a2.966,2.966,0,0,1,0,4.442v1.2A5,5,0,0,1,48,53v1h.422a4.993,4.993,0,0,1,9.156,0H61V18Z"/><path class="cls-1" d="M18,45a2.978,2.978,0,0,1,1-2.221V18H3V54H6.422a4.993,4.993,0,0,1,9.156,0H16V53a5,5,0,0,1,3-4.578v-1.2A2.978,2.978,0,0,1,18,45Z"/><path class="cls-2" d="M19,3V42.779a2.971,2.971,0,0,1,2.641-.711A3,3,0,0,1,21,48a5,5,0,0,1,5,5,6,6,0,0,1,12,0,5,5,0,0,1,5-5,3,3,0,0,1-.641-5.932A2.971,2.971,0,0,1,45,42.779V3Z"/><circle class="cls-3" cx="32" cy="43" r="4"/><circle class="cls-4" cx="11" cy="48" r="3"/><circle class="cls-4" cx="53" cy="48" r="3"/><path class="cls-3" d="M32,47h0a6,6,0,0,1,6,6v8a0,0,0,0,1,0,0H26a0,0,0,0,1,0,0V53A6,6,0,0,1,32,47Z"/><path class="cls-4" d="M11,51h0a5,5,0,0,1,5,5v5a0,0,0,0,1,0,0H6a0,0,0,0,1,0,0V56A5,5,0,0,1,11,51Z"/><path class="cls-4" d="M21,48h0a5,5,0,0,1,5,5v8a0,0,0,0,1,0,0H16a0,0,0,0,1,0,0V53A5,5,0,0,1,21,48Z"/><circle class="cls-4" cx="21" cy="45" r="3"/><path class="cls-4" d="M53,51h0a5,5,0,0,1,5,5v5a0,0,0,0,1,0,0H48a0,0,0,0,1,0,0V56a5,5,0,0,1,5-5Z"/><path class="cls-4" d="M43,48h0a5,5,0,0,1,5,5v8a0,0,0,0,1,0,0H38a0,0,0,0,1,0,0V53A5,5,0,0,1,43,48Z"/><circle class="cls-4" cx="43" cy="45" r="3"/><rect class="cls-5" x="26" y="7" width="12" height="8"/><path d="M61,17H46V3a1,1,0,0,0-1-1H19a1,1,0,0,0-1,1V17H3a1,1,0,0,0-1,1V54a1,1,0,0,0,1,1H5.09A6,6,0,0,0,5,56v5a1,1,0,0,0,1,1H58a1,1,0,0,0,1-1V56a6,6,0,0,0-.09-1H61a1,1,0,0,0,1-1V18A1,1,0,0,0,61,17ZM42.581,46.954c-.046-.01-.089-.028-.133-.041a2.029,2.029,0,0,1-.256-.087c-.054-.024-.1-.056-.156-.084a1.953,1.953,0,0,1-.2-.119c-.052-.037-.1-.079-.146-.12a1.97,1.97,0,0,1-.162-.155,1.846,1.846,0,0,1-.12-.145,1.912,1.912,0,0,1-.126-.187c-.033-.056-.065-.112-.093-.172a1.961,1.961,0,0,1-.077-.2c-.022-.063-.044-.125-.06-.191a2.029,2.029,0,0,1-.033-.221c-.008-.064-.018-.127-.02-.192a2.094,2.094,0,0,1,.016-.236c.006-.065.007-.131.019-.193a1.881,1.881,0,0,1,.157-.462,1.583,1.583,0,0,1,.076-.14,2.04,2.04,0,0,1,.249-.346c.019-.021.033-.044.053-.064a2.053,2.053,0,0,1,.393-.306c.041-.025.085-.047.128-.069a1.916,1.916,0,0,1,.421-.161c.022-.006.043-.015.065-.02a1.981,1.981,0,0,1,.516-.036c.059,0,.116.01.174.017a2.027,2.027,0,0,1,.32.072c.038.012.076.022.112.035a2.156,2.156,0,0,1,.628.387,2,2,0,0,1,.616,1.038c0,.01.007.019.009.029a1.951,1.951,0,0,1,0,.824c0,.01-.006.019-.009.029a2,2,0,0,1-.617,1.038l0,.007A1.983,1.983,0,0,1,43,47,2.022,2.022,0,0,1,42.581,46.954ZM20,4H44V41.129c-.025-.007-.051,0-.076-.011a4.069,4.069,0,0,0-.659-.091c-.072-.005-.141-.021-.213-.022-.017,0-.034-.005-.052-.005a3.941,3.941,0,0,0-.825.088.229.229,0,0,0-.025,0,3.845,3.845,0,0,0-.67.214c-.038.015-.074.035-.112.052a3.962,3.962,0,0,0-.532.289l-.125.083a3.994,3.994,0,0,0-.512.423c-.01.01-.022.019-.033.029a4.155,4.155,0,0,0-.471.571c-.013.019-.023.04-.036.059a3.988,3.988,0,0,0-.308.568c-.021.046-.04.093-.059.14a3.878,3.878,0,0,0-.182.584c-.01.044-.024.086-.032.13-.005.024-.014.047-.018.072-.016.091-.008.182-.017.273A3.934,3.934,0,0,0,39,45c0,.035.01.068.01.1,0,.111.022.217.033.327a4.042,4.042,0,0,0,.08.508c.026.108.063.21.1.315a4.02,4.02,0,0,0,.178.458c.051.107.109.208.169.31a3.807,3.807,0,0,0,.262.391c.041.053.068.115.111.166s.1.117.155.173c-.037.021-.071.046-.107.068-.141.082-.28.168-.413.261-.06.041-.117.087-.175.13-.111.084-.221.171-.326.262-.06.052-.118.106-.176.161-.1.092-.193.187-.285.286-.054.058-.108.116-.16.176-.092.108-.179.219-.264.333-.032.043-.068.082-.1.126-.022-.039-.051-.074-.074-.112-.111-.187-.229-.368-.357-.544-.047-.064-.094-.128-.144-.192q-.211-.272-.448-.52c-.031-.033-.06-.069-.091-.1a7.1,7.1,0,0,0-.606-.544c-.055-.043-.112-.083-.168-.125-.167-.126-.339-.245-.517-.355-.069-.043-.137-.086-.207-.127-.085-.049-.171-.1-.258-.142a5,5,0,1,0-6.442,0c-.087.045-.173.093-.258.142-.07.041-.139.084-.208.127q-.265.166-.515.354c-.057.043-.114.082-.169.126a7.1,7.1,0,0,0-.606.544c-.031.032-.06.068-.091.1q-.237.249-.448.52c-.05.064-.1.128-.144.193-.128.175-.246.356-.357.543-.023.038-.052.073-.074.112-.031-.044-.067-.083-.1-.126-.085-.114-.172-.225-.264-.333-.052-.06-.106-.118-.16-.176-.092-.1-.187-.194-.285-.286-.058-.055-.116-.109-.176-.161-.105-.091-.215-.178-.326-.262-.058-.043-.115-.089-.175-.13-.133-.093-.272-.179-.413-.261-.036-.022-.07-.047-.107-.068.053-.056.1-.113.155-.173s.07-.113.111-.166a3.807,3.807,0,0,0,.262-.391c.06-.1.118-.2.169-.31a4.02,4.02,0,0,0,.178-.458c.035-.1.072-.207.1-.315a4.042,4.042,0,0,0,.08-.508c.011-.11.03-.216.033-.327,0-.035.01-.068.01-.1a3.934,3.934,0,0,0-.043-.423c-.009-.091,0-.182-.017-.273,0-.025-.013-.048-.018-.072-.008-.044-.022-.086-.032-.13a3.878,3.878,0,0,0-.182-.584c-.019-.047-.038-.094-.059-.14a3.988,3.988,0,0,0-.308-.568c-.013-.019-.023-.04-.036-.059a4.155,4.155,0,0,0-.471-.571c-.011-.01-.023-.019-.033-.029a3.994,3.994,0,0,0-.512-.423l-.125-.083a3.962,3.962,0,0,0-.532-.289c-.038-.017-.074-.037-.112-.052a3.845,3.845,0,0,0-.67-.214.229.229,0,0,0-.025,0A3.941,3.941,0,0,0,21,41c-.019,0-.036.005-.054.005-.068,0-.134.016-.2.021a4.07,4.07,0,0,0-.668.092c-.025.006-.051,0-.076.011V4Zm9,39a3,3,0,1,1,3,3A3,3,0,0,1,29,43Zm-9.325,3.486,0-.007a1.994,1.994,0,0,1-.618-1.041c0-.009-.006-.017-.008-.026a1.951,1.951,0,0,1,0-.824c0-.009.006-.017.008-.026a2,2,0,0,1,.617-1.041,2.135,2.135,0,0,1,.633-.388c.031-.012.064-.02.1-.03a1.821,1.821,0,0,1,.34-.076c.053-.008.106-.014.161-.017a2.011,2.011,0,0,1,.52.036c.022.005.043.014.065.02a1.916,1.916,0,0,1,.421.161c.043.022.087.044.128.069a2.053,2.053,0,0,1,.393.306c.02.02.034.043.053.064a2.04,2.04,0,0,1,.249.346,1.583,1.583,0,0,1,.076.14,1.881,1.881,0,0,1,.157.462c.012.062.013.128.019.193a2.094,2.094,0,0,1,.016.236c0,.065-.012.128-.02.192a2.029,2.029,0,0,1-.033.221c-.016.066-.038.128-.06.191a1.961,1.961,0,0,1-.077.2c-.028.06-.06.116-.093.172a1.912,1.912,0,0,1-.126.187,1.846,1.846,0,0,1-.12.145,1.97,1.97,0,0,1-.162.155c-.048.041-.094.083-.146.12a1.953,1.953,0,0,1-.2.119c-.052.028-.1.06-.156.084a2.029,2.029,0,0,1-.256.087c-.044.013-.087.031-.133.041A2.022,2.022,0,0,1,21,47,1.983,1.983,0,0,1,19.675,46.486ZM5.809,53H4V19H18V42.37c-.029.033-.049.072-.077.105a4.072,4.072,0,0,0-.317.433c-.039.063-.071.131-.107.2a3.93,3.93,0,0,0-.218.447c-.039.1-.064.2-.1.309-.038.129-.083.254-.109.389a3.739,3.739,0,0,0,0,1.5c.026.135.071.26.109.389.032.1.057.209.1.309a3.93,3.93,0,0,0,.218.447c.036.066.068.134.107.2a4.072,4.072,0,0,0,.317.433c.028.033.048.072.077.105v.179c-.027.015-.05.034-.077.049-.133.081-.264.164-.391.255-.052.036-.1.075-.151.113-.107.081-.211.164-.311.251-.058.05-.113.1-.168.153-.089.083-.175.168-.258.257-.056.059-.111.118-.164.179-.078.09-.152.181-.224.275-.05.064-.1.128-.146.194-.069.1-.135.2-.2.3-.041.066-.082.131-.121.2-.063.109-.12.222-.175.335-.032.065-.065.129-.094.2-.054.12-.1.243-.147.367-.024.065-.049.129-.071.2-.042.126-.076.254-.109.384-.014.053-.032.1-.045.158-.046-.045-.1-.084-.145-.127-.081-.073-.161-.146-.246-.214-.062-.05-.127-.1-.191-.143-.09-.067-.18-.135-.273-.2-.061-.04-.125-.076-.187-.113s-.141-.09-.214-.13a4,4,0,1,0-5.786,0c-.022.012-.042.026-.064.038-.045.026-.089.055-.133.082q-.245.147-.472.316c-.047.035-.094.069-.14.1A6.088,6.088,0,0,0,6.286,52.3l-.085.114a6.229,6.229,0,0,0-.358.535C5.833,52.966,5.819,52.982,5.809,53ZM9,48a2,2,0,1,1,2,2A2,2,0,0,1,9,48ZM7,56a3.964,3.964,0,0,1,.646-2.164c.048-.075.1-.143.156-.214a3.909,3.909,0,0,1,.279-.338c.06-.064.12-.127.183-.186a4.038,4.038,0,0,1,.391-.323c.048-.035.092-.075.141-.108a3.991,3.991,0,0,1,.586-.318c.066-.03.134-.052.2-.078a4.116,4.116,0,0,1,.484-.15c.072-.017.143-.035.216-.049a3.6,3.6,0,0,1,1.432,0c.073.014.144.031.216.049a4.191,4.191,0,0,1,.485.15c.067.026.135.048.2.078a3.991,3.991,0,0,1,.586.318c.049.033.093.073.141.108a4.038,4.038,0,0,1,.391.323c.063.059.123.122.183.185a4.143,4.143,0,0,1,.28.34c.052.07.108.138.155.213A3.964,3.964,0,0,1,15,56v4H7Zm10,0V53a4.023,4.023,0,0,1,.072-.716c.014-.073.031-.144.049-.216a4.191,4.191,0,0,1,.15-.485c.026-.067.048-.135.078-.2a3.991,3.991,0,0,1,.318-.586c.033-.049.073-.093.108-.141a4.038,4.038,0,0,1,.323-.391c.059-.063.122-.123.185-.183a4.143,4.143,0,0,1,.34-.28c.07-.052.138-.108.213-.155A3.964,3.964,0,0,1,21,49a4,4,0,0,1,4,4v7H17Zm10-3a5,5,0,0,1,10,0v7H27Zm12,0a4,4,0,0,1,4-4,3.964,3.964,0,0,1,2.164.646c.075.047.143.1.213.155a4.143,4.143,0,0,1,.34.28c.063.06.126.12.185.183a4.038,4.038,0,0,1,.323.391c.035.048.075.092.108.141a3.991,3.991,0,0,1,.318.586c.03.066.052.134.078.2a4.191,4.191,0,0,1,.15.485c.018.072.035.143.049.216A4.023,4.023,0,0,1,47,53v7H39Zm18,7H49V56a3.964,3.964,0,0,1,.646-2.164c.048-.075.1-.143.156-.214a3.909,3.909,0,0,1,.279-.338c.06-.064.12-.127.183-.186a4.038,4.038,0,0,1,.391-.323c.048-.035.092-.075.141-.108a3.991,3.991,0,0,1,.586-.318c.066-.03.134-.052.2-.078a4.116,4.116,0,0,1,.484-.15c.072-.017.143-.035.216-.049a3.6,3.6,0,0,1,1.432,0c.073.014.144.031.216.049a4.191,4.191,0,0,1,.485.15c.067.026.135.048.2.078a3.991,3.991,0,0,1,.586.318c.049.033.093.073.141.108a4.038,4.038,0,0,1,.391.323c.063.059.123.122.183.185a4.143,4.143,0,0,1,.28.34c.052.07.108.138.155.213A3.964,3.964,0,0,1,57,56ZM53,50a2,2,0,1,1,2-2A2,2,0,0,1,53,50Zm7,3H58.191c-.01-.018-.024-.034-.034-.052a6.229,6.229,0,0,0-.358-.535l-.085-.114A6.088,6.088,0,0,0,56.7,51.288c-.046-.036-.093-.07-.14-.1q-.228-.169-.472-.316c-.044-.027-.088-.056-.133-.082-.022-.012-.042-.026-.064-.038a4,4,0,1,0-5.786,0c-.074.041-.143.087-.215.13s-.125.073-.185.113c-.094.062-.184.13-.274.2-.064.047-.129.093-.191.143-.085.068-.165.141-.246.214-.048.043-.1.082-.145.127-.013-.054-.031-.1-.045-.158-.033-.13-.067-.258-.109-.384-.022-.066-.047-.13-.071-.2-.046-.124-.093-.247-.147-.367-.029-.067-.062-.131-.094-.2-.055-.113-.112-.226-.175-.335-.039-.068-.08-.133-.121-.2-.064-.1-.13-.2-.2-.3-.047-.066-.1-.13-.146-.194-.072-.094-.146-.185-.224-.275-.053-.061-.108-.12-.164-.179-.083-.089-.169-.174-.258-.257-.055-.052-.11-.1-.168-.153-.1-.087-.2-.17-.311-.251-.05-.038-.1-.077-.151-.113-.127-.091-.258-.174-.391-.255-.027-.015-.05-.034-.077-.049V47.63c.029-.033.049-.072.077-.105a4.072,4.072,0,0,0,.317-.433c.039-.063.071-.131.107-.2a3.93,3.93,0,0,0,.218-.447c.039-.1.064-.2.1-.309.038-.129.083-.254.109-.389a3.739,3.739,0,0,0,0-1.5c-.026-.135-.071-.26-.109-.389-.032-.1-.057-.209-.1-.309a3.93,3.93,0,0,0-.218-.447c-.036-.066-.068-.134-.107-.2a4.072,4.072,0,0,0-.317-.433c-.028-.033-.048-.072-.077-.105V19H60Z"/><rect x="23" y="22" width="2" height="2"/><rect x="23" y="26" width="2" height="2"/><rect x="23" y="30" width="2" height="2"/><rect x="23" y="34" width="2" height="2"/><rect x="27" y="22" width="2" height="2"/><rect x="27" y="26" width="2" height="2"/><rect x="27" y="30" width="2" height="2"/><rect x="27" y="34" width="2" height="2"/><rect x="31" y="22" width="2" height="2"/><rect x="31" y="26" width="2" height="2"/><rect x="31" y="30" width="2" height="2"/><rect x="31" y="34" width="2" height="2"/><rect x="35" y="22" width="2" height="2"/><rect x="27" y="18" width="2" height="2"/><rect x="31" y="18" width="2" height="2"/><rect x="35" y="18" width="2" height="2"/><rect x="35" y="26" width="2" height="2"/><rect x="35" y="30" width="2" height="2"/><rect x="35" y="34" width="2" height="2"/><rect x="39" y="22" width="2" height="2"/><rect x="39" y="26" width="2" height="2"/><rect x="39" y="30" width="2" height="2"/><rect x="39" y="34" width="2" height="2"/><rect x="49" y="25" width="2" height="16"/><rect x="55" y="25" width="2" height="16"/><rect x="7" y="25" width="2" height="16"/><rect x="13" y="25" width="2" height="16"/><path d="M26,16H38a1,1,0,0,0,1-1V7a1,1,0,0,0-1-1H26a1,1,0,0,0-1,1v8A1,1,0,0,0,26,16Zm1-8H37v6H27Z"/></svg>