<?xml version="1.0" encoding="UTF-8" standalone="no"?> <svg id="Line_Gradient" data-name="Line Gradient" xmlns="http://www.w3.org/2000/svg" xmlns:xlink="http://www.w3.org/1999/xlink" viewBox="0 0 64 64"><defs><style>.cls-1{fill:url(#linear-gradient);}</style><linearGradient id="linear-gradient" x1="4" y1="32" x2="60" y2="32" gradientUnits="userSpaceOnUse"><stop offset="0" stop-color="#9cffac"/><stop offset="1" stop-color="#00b59c"/></linearGradient></defs><title>1</title><path class="cls-1" d="M14.14551,47.95068a3.28809,3.28809,0,1,0-3.28809,3.28809A3.29159,3.29159,0,0,0,14.14551,47.95068Zm-4.57617,0a1.28809,1.28809,0,1,1,1.28808,1.28809A1.2896,1.2896,0,0,1,9.56934,47.95068Zm47.376-31.75244H17.71484v-.14892A6.85742,6.85742,0,1,0,4,16.04932V47.95068a6.86553,6.86553,0,0,0,6.85742,6.85791H56.94531A3.05777,3.05777,0,0,0,60,51.75439V19.25244A3.05778,3.05778,0,0,0,56.94531,16.19824Zm-6.623,12.49512a5.65335,5.65335,0,0,1,0,6.2915,7.644,7.644,0,0,0,0,8.35108,5.65979,5.65979,0,0,1,0,6.29541,7.2839,7.2839,0,0,0-1.17987,3.17724H42.10815a5.55258,5.55258,0,0,1,.88208-2.14843,7.65234,7.65234,0,0,0,0-8.353,5.65577,5.65577,0,0,1,0-6.293,7.64741,7.64741,0,0,0,0-8.3501,5.65335,5.65335,0,0,1,0-6.2915A7.287,7.287,0,0,0,44.169,18.19824h7.03515a5.54489,5.54489,0,0,1-.88189,2.145,7.15719,7.15719,0,0,0-1.24122,4.17432A7.16247,7.16247,0,0,0,50.32227,28.69336ZM24.89551,42.30713a5.65572,5.65572,0,0,1,0-6.293,7.64746,7.64746,0,0,0,0-8.3501,5.6533,5.6533,0,0,1,0-6.2915,7.287,7.287,0,0,0,1.17877-3.17432h7.0343a5.5282,5.5282,0,0,1-.882,2.145,7.16623,7.16623,0,0,0-1.24023,4.17432,7.17152,7.17152,0,0,0,1.24023,4.17578,5.6533,5.6533,0,0,1,0,6.2915,7.64828,7.64828,0,0,0,0,8.35059,5.66135,5.66135,0,0,1,0,6.29639,7.29254,7.29254,0,0,0-1.17889,3.17675H24.01343a5.55227,5.55227,0,0,1,.88208-2.14843,7.65239,7.65239,0,0,0,0-8.353Zm9.04687,8.353a7.65234,7.65234,0,0,0,0-8.353,5.65577,5.65577,0,0,1,0-6.293,7.64741,7.64741,0,0,0,0-8.3501,5.65335,5.65335,0,0,1,0-6.2915,7.28691,7.28691,0,0,0,1.17877-3.17432h7.03528a5.5282,5.5282,0,0,1-.882,2.145,7.16623,7.16623,0,0,0-1.24023,4.17432,7.17152,7.17152,0,0,0,1.24023,4.17578,5.6533,5.6533,0,0,1,0,6.2915,7.64828,7.64828,0,0,0,0,8.35059,5.66135,5.66135,0,0,1,0,6.29639,7.29266,7.29266,0,0,0-1.17889,3.17675H33.0603A5.55258,5.55258,0,0,1,33.94238,50.66016ZM6,16.04932a4.85742,4.85742,0,1,1,9.71484,0V43.11584a6.84407,6.84407,0,0,0-9.71484,0ZM6,47.95068a4.85742,4.85742,0,1,1,4.85742,4.85791A4.86283,4.86283,0,0,1,6,47.95068Zm11.71484,0V18.19824h6.34687a5.52835,5.52835,0,0,1-.882,2.145,7.16615,7.16615,0,0,0-1.24024,4.17432,7.17144,7.17144,0,0,0,1.24024,4.17578,5.65335,5.65335,0,0,1,0,6.2915,7.64823,7.64823,0,0,0,0,8.35059,5.6614,5.6614,0,0,1,0,6.29639,7.29266,7.29266,0,0,0-1.1789,3.17675H15.692A6.83637,6.83637,0,0,0,17.71484,47.95068ZM58,51.75439a1.05548,1.05548,0,0,1-1.05469,1.0542H51.15509a5.549,5.549,0,0,1,.882-2.148,7.649,7.649,0,0,0,0-8.354,5.65491,5.65491,0,0,1,0-6.29248,7.6424,7.6424,0,0,0,0-8.3501,5.6533,5.6533,0,0,1,0-6.2915,7.27354,7.27354,0,0,0,1.17981-3.17432h3.72839A1.05549,1.05549,0,0,1,58,19.25244Z"/></svg>