<?xml version="1.0" encoding="UTF-8" standalone="no"?> <svg id="icons" xmlns="http://www.w3.org/2000/svg" viewBox="0 0 340 340"><title>2_industry pollution</title><polygon points="211.839 137.573 193.826 137.573 192.024 261.502 213.64 261.502 211.839 137.573" style="fill:#ef7da9"/><polygon points="257.356 137.573 239.343 137.573 237.542 261.502 259.158 261.502 257.356 137.573" style="fill:#ef7da9"/><polygon points="237.542 261.502 259.158 261.502 258.169 193.457 238.531 193.457 237.542 261.502" style="fill:#3d4151"/><polygon points="192.024 261.502 213.64 261.502 212.651 193.457 193.013 193.457 192.024 261.502" style="fill:#3d4151"/><rect x="46.184" y="272.835" width="134.07" height="56.85" style="fill:#9191aa"/><polygon points="271.049 229.058 271.049 250.756 225.651 229.058 225.651 250.756 180.253 229.058 180.253 329.685 225.651 329.685 271.049 329.685 316.446 329.685 316.446 250.756 271.049 229.058" style="fill:#e4eaf2"/><rect x="65.807" y="185.487" width="50.076" height="87.348" style="fill:#9191aa"/><path d="M159.13,272.835H140.365V185.487a18.378,18.378,0,0,0-18.358-18.357h-1.441a18.378,18.378,0,0,0-18.357,18.357H83.444a37.164,37.164,0,0,1,37.122-37.122h1.441a37.164,37.164,0,0,1,37.123,37.122Z" style="fill:#3d4151"/><rect x="202.832" y="275.715" width="15.264" height="29.098" style="fill:#3d4151"/><rect x="240.718" y="275.715" width="15.264" height="29.098" style="fill:#3d4151"/><rect x="278.603" y="275.715" width="15.264" height="29.098" style="fill:#3d4151"/><path d="M170.476,80a62.546,62.546,0,0,0-11.967-1.751,32.833,32.833,0,0,1-21.573-10.041,14.349,14.349,0,0,0-10.612-2.589c1.8-8.138,1.231-15.633-2.5-22.267A40.752,40.752,0,0,0,61.162,29.882a49.783,49.783,0,0,0-29.239,75.9s27.629,27.654,73.939,3.108c23.552,7.486,44.905-8.733,44.905-8.733s11.973,14.878,34.086,4.5l8.794-11.12C189.256,88,182.069,82.976,170.476,80Z" style="fill:#e4eaf2"/><circle cx="150.767" cy="35.028" r="12.08" style="fill:#adbcc9"/><path d="M268.186,38.675A30.929,30.929,0,0,0,218.994,16.36a11.636,11.636,0,0,1-8.688,2.089A26.181,26.181,0,0,0,180.26,43.731s6.353,26.608,38.069,20.375c.27,7.151,2.461,17.656,11.978,23.145,29.4,16.953,35.436-7.337,35.436-7.337a70.565,70.565,0,0,0-.762-19.857,11.389,11.389,0,0,1,.765-6.518A30.878,30.878,0,0,0,268.186,38.675Z" style="fill:#e4eaf2"/><path d="M157.905,108.317c5.909,2.739,15.155,4.468,27.223-1.2a19.5,19.5,0,0,1,11.027,7.816,2.17,2.17,0,0,0,3.985-1.135,31.255,31.255,0,0,0-6.5-20.26c-18.115,8.642-31.809,4.315-39.111.287a9.174,9.174,0,0,0-10.092.855c-3.214,2.507-8.826,5.4-18.535,7.267-14.8,2.853-27.642-4.4-33.864-8.118A1.878,1.878,0,0,0,89.28,95.97a23.768,23.768,0,0,0,1.727,4.524,5.642,5.642,0,0,1-1.829,7.157c-7.822,5.479-26.722,13.84-57.252-1.869a49.789,49.789,0,0,0,71.339,12.438,15.845,15.845,0,0,1,12.214-2.782,34.235,34.235,0,0,0,5.808.482,39.206,39.206,0,0,0,21.564-6.431A15.55,15.55,0,0,1,157.905,108.317Z" style="fill:#adbcc9"/><path d="M240.38,85.654c-17.738-9.119-15.753-24.052-13.272-31.661a1.619,1.619,0,0,0-2.629-1.691,19.22,19.22,0,0,1-4.213,3.1c-23.488,12.345-35.123-1.95-40-11.667l-.008,0a26.175,26.175,0,0,0,29.918,26.5,6.458,6.458,0,0,1,7.009,4.66,27.728,27.728,0,0,0,11.2,14.92c10.885,7.586,15.412,15.742,17.293,21.3a3.875,3.875,0,0,0,6.669,1.2,61.685,61.685,0,0,0,13.394-32.4C261.2,86.707,253.336,92.315,240.38,85.654Z" style="fill:#adbcc9"/><path d="M269.205,226.133a3.458,3.458,0,0,0-1.613,2.925v16.214l-5.25-2.509-1.53-105.24a3.456,3.456,0,0,0-3.456-3.407H239.343a3.456,3.456,0,0,0-3.456,3.407L234.55,229.48l-7.408-3.541a3.456,3.456,0,0,0-4.948,3.119v16.214l-5.37-2.567L215.3,137.523a3.456,3.456,0,0,0-3.456-3.407H193.826a3.456,3.456,0,0,0-3.456,3.407l-1.336,91.9-7.29-3.484a3.456,3.456,0,0,0-4.947,3.119v40.32H119.34V185.487a3.457,3.457,0,0,0-3.457-3.457H65.807a3.457,3.457,0,0,0-3.457,3.457v83.891H46.184a3.457,3.457,0,0,0-3.457,3.457v56.85a3.457,3.457,0,0,0,3.457,3.457H179.166a2.713,2.713,0,0,1,1.087,0H316.446a3.457,3.457,0,0,0,3.457-3.457v-78.93a3.456,3.456,0,0,0-1.966-3.118l-45.4-21.7A3.456,3.456,0,0,0,269.205,226.133Zm-15.256-85.1.712,48.97H242.038l.712-48.97Zm-12.011,55.884h12.824l.618,42.521-13.964-6.674ZM208.432,141.03l.712,48.97H196.521l.712-48.97ZM196.42,196.914h12.824l.618,42.463L195.9,232.705Zm-127.156-7.97h43.162v80.434H69.264ZM49.64,276.292H176.8v49.936H49.64ZM272.892,253.68a3.458,3.458,0,0,0,1.613-2.925V234.541l38.484,18.394v73.293H183.71V234.541l40.45,19.333a3.456,3.456,0,0,0,4.948-3.119V234.541l40.45,19.333A3.457,3.457,0,0,0,272.892,253.68Z" style="fill:#3d4151"/><path d="M70.7,131.507q1.338.067,2.671.067a53.523,53.523,0,0,0,36.193-14.1,35.694,35.694,0,0,0,11.726,1.9,42.917,42.917,0,0,0,29.3-11.546c5.2,3.983,17.4,10.587,34.809,2.965a16.314,16.314,0,0,1,10.38,11.633,3.457,3.457,0,0,0,6.661.115c.168-.569,4.045-14.085-3.251-26.961C194,86.436,184.63,80.065,171.337,76.649A65.645,65.645,0,0,0,158.709,74.8a29.31,29.31,0,0,1-18.885-8.586,3.456,3.456,0,1,0-4.86,4.916A36.226,36.226,0,0,0,158.31,81.7a58.845,58.845,0,0,1,11.306,1.647c11.368,2.922,19.278,8.163,23.511,15.576a27.473,27.473,0,0,1,3.4,11.015,22.814,22.814,0,0,0-10.7-6.2,3.457,3.457,0,0,0-2.174.254c-19.348,9.083-30.238-2.717-30.679-3.208a3.406,3.406,0,0,0-2.662-1.175,3.47,3.47,0,0,0-2.622,1.271,35.5,35.5,0,0,1-26.41,11.585,28.137,28.137,0,0,1-11.169-2.178,3.454,3.454,0,0,0-3.811.735,46.427,46.427,0,1,1-44.3-77.787,3.462,3.462,0,0,0,1.363-.694,37.3,37.3,0,0,1,59.44,17.585c.006.02.018.037.024.057s.009.043.016.065c.041.114,3.957,11.565-3.04,20.586a3.457,3.457,0,0,0,5.463,4.237c9.281-11.966,4.314-26.507,4.1-27.121l0,0A44.208,44.208,0,0,0,59.56,26.727,53.344,53.344,0,0,0,70.7,131.507Z" style="fill:#3d4151"/><path d="M150.767,50.564a15.537,15.537,0,1,0-15.536-15.536A15.553,15.553,0,0,0,150.767,50.564Zm0-24.159a8.623,8.623,0,1,1-8.623,8.623A8.632,8.632,0,0,1,150.767,26.405Z" style="fill:#3d4151"/><path d="M202.443,73.692a3.457,3.457,0,0,0,.921-6.852A22.715,22.715,0,1,1,214.04,22.93a3.451,3.451,0,0,0,3.635-.845,27.471,27.471,0,0,1,43.59,32.7,3.457,3.457,0,0,0-.369,2.457c6.152,27.686-5.054,45.694-11.7,53.519-1.924-6.173-6.751-15.364-18.836-23.787-6.647-4.632-10.3-10.878-10.863-18.562,0-.012-.005-.023-.006-.034s0-.025,0-.037c-.01-.112-.91-11.2,10.889-15.922A3.457,3.457,0,1,0,227.814,46C214.634,51.27,212.1,63.244,212.6,68.912v0l0,.02,0,.052,0,.015c.733,9.687,5.5,17.862,13.8,23.644,16.984,11.837,17.15,24.672,17.149,25.184a3.456,3.456,0,0,0,5.638,2.747c1.124-.915,27.181-22.67,18.724-63.562a34.386,34.386,0,0,0-53.642-41.255,29.629,29.629,0,1,0-11.833,57.931Z" style="fill:#3d4151"/></svg>