<?xml version="1.0" encoding="UTF-8"?>
<!DOCTYPE svg PUBLIC "-//W3C//DTD SVG 1.1//EN" "http://www.w3.org/Graphics/SVG/1.1/DTD/svg11.dtd">
<!-- Creator: CorelDRAW -->
<svg xmlns="http://www.w3.org/2000/svg" xml:space="preserve" width="1.99999in" height="1.99999in" version="1.1" style="shape-rendering:geometricPrecision; text-rendering:geometricPrecision; image-rendering:optimizeQuality; fill-rule:evenodd; clip-rule:evenodd"
viewBox="0 0 2000 2000"
 xmlns:xlink="http://www.w3.org/1999/xlink">
 <defs>
  <style type="text/css">
   <![CDATA[
    .fil0 {fill:none}
    .fil8 {fill:black}
    .fil2 {fill:#1AA1FF}
    .fil4 {fill:#333333}
    .fil3 {fill:#7DD63E}
    .fil5 {fill:#E62C2C}
    .fil6 {fill:#E6E6E6}
    .fil1 {fill:#FF3131}
    .fil7 {fill:#FFA721}
   ]]>
  </style>
 </defs>
 <rect class="fil0" width="2000" height="2000"/>
 <g id="Layer_x0020_1">
  <metadata id="CorelCorpID_0Corel-Layer"/>
  <g id="_333698024">
   <path class="fil1" d="M1286 1699c-30,0 -54,-24 -54,-53l0 -363c0,-29 24,-53 54,-53 29,0 53,24 53,53l0 363c0,29 -24,53 -53,53z"/>
   <path class="fil2" d="M1525 1699c-29,0 -53,-24 -53,-53l0 -629c0,-30 24,-54 53,-54 30,0 54,24 54,54l0 629c0,29 -24,53 -54,53z"/>
   <path class="fil3" d="M1765 1699c-30,0 -53,-24 -53,-53l0 -917c0,-29 23,-53 53,-53 29,0 53,24 53,53l0 917c0,29 -24,53 -53,53z"/>
   <path class="fil4" d="M1269 788l409 -409c21,-21 55,-21 76,0 20,21 20,55 0,75l-431 431c-13,14 -33,19 -51,14l-181 -48 -38 37c-10,10 -23,16 -38,16 -14,0 -27,-6 -37,-16 -21,-21 -21,-55 0,-76l59 -59c13,-13 33,-19 52,-14l180 49z"/>
   <path class="fil4" d="M1800 1726l-1139 0c-30,0 -53,-24 -53,-54 0,-29 23,-53 53,-53l1139 0c30,0 53,24 53,53 0,30 -23,54 -53,54z"/>
   <path class="fil1" d="M661 1699c-284,0 -514,-231 -514,-514 0,-284 230,-514 514,-514 284,0 514,230 514,514 0,283 -231,514 -514,514z"/>
   <path class="fil5" d="M661 1632c-247,0 -448,-200 -448,-447 0,-247 201,-448 448,-448 247,0 447,201 447,448 0,247 -200,447 -447,447z"/>
   <path class="fil6" d="M661 1605c-232,0 -420,-189 -420,-420 0,-232 188,-420 420,-420 231,0 420,188 420,420 0,231 -189,420 -420,420z"/>
   <path class="fil4" d="M661 1162c-15,0 -27,-12 -27,-27l0 -182c0,-14 12,-26 27,-26 15,0 27,12 27,26l0 182c0,15 -12,27 -27,27z"/>
   <path class="fil7" d="M460 1327c-9,0 -18,-5 -23,-13 -7,-13 -3,-29 10,-37l158 -90c12,-8 29,-3 36,9 7,13 3,29 -10,37l-157 91c-4,2 -9,3 -14,3z"/>
   <polygon class="fil8" points="1804,328 1804,328 "/>
   <path class="fil3" d="M1804 510c-13,0 -26,-5 -35,-15l-137 -136c-14,-14 -18,-35 -11,-54 8,-19 26,-31 46,-31l137 0c27,0 49,23 49,50l0 136c0,20 -12,38 -30,46 -7,3 -13,4 -19,4z"/>
   <g>
    <path class="fil4" d="M626 767c11,-1 23,-2 35,-2 6,0 12,0 18,0l0 81c0,15 -12,27 -26,27 -15,0 -27,-12 -27,-27l0 -79z"/>
    <path class="fil4" d="M932 864c9,8 17,16 26,24 4,4 8,9 12,13l-57 57c-10,11 -27,11 -37,0 -11,-10 -11,-27 0,-38l56 -56z"/>
    <path class="fil4" d="M1079 1150c1,11 2,23 2,35 0,6 -1,12 -1,18l-80 0c-15,0 -27,-12 -27,-26 0,-15 12,-27 27,-27l79 0z"/>
    <path class="fil4" d="M981 1456c-7,9 -15,17 -23,26 -5,4 -9,8 -14,12l-57 -57c-10,-10 -10,-27 0,-37 11,-11 28,-11 38,0l56 56z"/>
    <path class="fil4" d="M696 1603c-12,1 -23,2 -35,2 -6,0 -12,-1 -19,-1l0 -80c0,-15 12,-27 27,-27 15,0 27,12 27,27l0 79z"/>
    <path class="fil4" d="M390 1505c-9,-7 -18,-15 -26,-23 -4,-5 -9,-9 -13,-14l57 -57c11,-10 27,-10 38,0 10,11 10,28 0,38l-56 56z"/>
    <path class="fil4" d="M243 1220c-1,-12 -2,-23 -2,-35 0,-6 0,-13 1,-19l80 0c15,0 27,12 27,27 0,15 -12,27 -27,27l-79 0z"/>
    <path class="fil4" d="M340 914c8,-9 16,-18 24,-26 4,-4 9,-9 13,-13l57 57c11,11 11,27 0,38 -10,10 -27,10 -37,0l-57 -56z"/>
   </g>
   <path class="fil1" d="M661 1261c-42,0 -76,-34 -76,-76 0,-42 34,-76 76,-76 42,0 76,34 76,76 0,42 -34,76 -76,76z"/>
   <path class="fil5" d="M661 1211c-15,0 -27,-11 -27,-26 0,-15 12,-27 27,-27 15,0 27,12 27,27 0,15 -12,26 -27,26z"/>
  </g>
 </g>
</svg>
