<?xml version="1.0" encoding="UTF-8" standalone="no"?> <svg id="Layer_1" data-name="Layer 1" xmlns="http://www.w3.org/2000/svg" viewBox="0 0 64 64"><path d="M35.376,14.912A10.909,10.909,0,0,0,38.63,26.623a1.656,1.656,0,0,1,.6,1.553l-.78,4.239c-.006.034,0,.069-.009.1,0,.017-.016.03-.019.047a.907.907,0,0,0,0,.138,4.7,4.7,0,0,0,3.251,5.117A4.646,4.646,0,0,0,42.945,38a4.6,4.6,0,0,0,4.527-3.765l.819-4.446a1.553,1.553,0,0,1,1.055-1.162,10.9,10.9,0,1,0-13.97-13.713Zm10.31,17.975-5.113-.942.127-.688,5.113.942Zm-1.367,2.721a2.547,2.547,0,0,1-3.861-1.65l4.663.859A2.588,2.588,0,0,1,44.319,35.608Zm1.97-26.136a8.9,8.9,0,0,1,8.183,10.5,8.924,8.924,0,0,1-5.792,6.772,3.532,3.532,0,0,0-2.356,2.686l-.149.807-5.113-.942.138-.751a3.634,3.634,0,0,0-1.267-3.434A8.894,8.894,0,0,1,45.7,9.452C45.9,9.452,46.093,9.459,46.289,9.472Z"/><path d="M43.489,25.21l-.173.937a1,1,0,0,0,.8,1.165,1.048,1.048,0,0,0,.183.017,1,1,0,0,0,.982-.819l.172-.931a3.7,3.7,0,0,0,.33-7.314,1.7,1.7,0,0,1,.615-3.343h0A1.7,1.7,0,0,1,47.765,16.9a1,1,0,1,0,1.966.363,3.654,3.654,0,0,0-2.012-3.977l.173-.937a1,1,0,0,0-1.967-.363l-.173.938a3.692,3.692,0,0,0-.329,7.307,1.7,1.7,0,0,1-.615,3.343h0A1.7,1.7,0,0,1,43.443,21.6a1,1,0,1,0-1.966-.363,3.654,3.654,0,0,0,2.012,3.977Z"/><path d="M47.985,6.063a.949.949,0,0,0,.182.017,1,1,0,0,0,.982-.819l.326-1.77a1,1,0,0,0-1.967-.362L47.183,4.9A1,1,0,0,0,47.985,6.063Z"/><path d="M36.652,4.07A1,1,0,0,0,36.4,5.461l1.021,1.482a1,1,0,1,0,1.646-1.135l-1.02-1.482A1,1,0,0,0,36.652,4.07Z"/><path d="M30.724,14.349l1.654.709a1,1,0,0,0,.787-1.838l-1.654-.709a1,1,0,1,0-.787,1.838Z"/><path d="M57.893,7.983,56.41,9a1,1,0,1,0,1.135,1.647L59.027,9.63a1,1,0,0,0-1.134-1.647Z"/><path d="M58.2,19.964a1,1,0,0,0,1,.959h.041l1.8-.072a1,1,0,1,0-.08-2l-1.8.072A1,1,0,0,0,58.2,19.964Z"/><path d="M4.362,29.089a9.072,9.072,0,0,0,.141,8.85,35.584,35.584,0,0,0,4.517,6.4,12.125,12.125,0,0,1,2.326,4.517l-1.165,4.294a.992.992,0,0,0-.578.347L8.355,55.033A9.824,9.824,0,0,0,6.172,61.2a1,1,0,0,0,2,0A7.813,7.813,0,0,1,9.91,56.292l.7-.866,4.311,2.568a38.277,38.277,0,0,0,11.034,4.18,1.065,1.065,0,0,0,.216.023,1,1,0,0,0,.718-1.7l-3.8-3.913,1.292-4.847a1,1,0,1,0-1.932-.515L21.015,56.62a1,1,0,0,0,.248.954l1.681,1.733a33.16,33.16,0,0,1-7-3.031l-3.909-2.33,1.217-4.485a6.424,6.424,0,0,0,.769-.636,6.923,6.923,0,0,0,1.652-6.913l-.164-.565a1.906,1.906,0,0,0,.56-1.1,1.01,1.01,0,0,0-.833-1.153.95.95,0,0,0-1.1.829,1.16,1.16,0,1,1-.643-2.229l-.02,0,.909-.259.94-.349A1.918,1.918,0,0,0,14.32,35.9l7.116-3.78a.868.868,0,0,1,1.241.527.865.865,0,0,1-.514,1.048l-4.3,1.7a1,1,0,1,0,.737,1.86L21.52,36.1c.731.974,2.02,2.367,3.434,2.367a2.116,2.116,0,0,0,.584-.082l3.04-.877a1.775,1.775,0,0,0,.483-.23c.084.076.169.152.254.225l-.5.345a1,1,0,0,0-.168,1.5l.567.616-.292,1.146a1.346,1.346,0,0,1-.407-.214,1,1,0,1,0-1.243,1.567,3.373,3.373,0,0,0,1.155.589l-.948,3.722a.233.233,0,0,1-.2.176l-6.915-.887a1,1,0,1,0-.254,1.984l6.991.9a.834.834,0,0,0,.15.008,2.224,2.224,0,0,0,2.164-1.684l1.868-7.334a1,1,0,0,0-.233-.924l-.154-.167.658-.453a1,1,0,0,0,.035-1.623,16.315,16.315,0,0,1-1.551-1.314,3.834,3.834,0,0,0-.132-1.45L28.245,28.24a3.663,3.663,0,0,0-1-1.671,9.152,9.152,0,0,0,1.519-7.846,1,1,0,0,0-1.311-.66L16.085,22.31a8.994,8.994,0,0,1-1.562.408C9.777,23.581,6.074,25.9,4.362,29.089Zm23.623,5.47a1.977,1.977,0,0,1,.061.9A1.1,1.1,0,0,0,28,35.6l-3.015.869c-.165.051-.82-.319-1.561-1.186a2.844,2.844,0,0,0-1.317-5.233c.165-.777.447-1.206.664-1.268l2.952-.868h.011a1.357,1.357,0,0,1,.591.884Zm-11.2-10.375,10.267-3.835a6.886,6.886,0,0,1-2.025,5.7l-2.812.811c-1.251.361-2.034,1.722-2.206,3.758l-8.477,4.5a1,1,0,0,0-.414,1.352.972.972,0,0,0,.276.319A3.148,3.148,0,0,0,13.6,41.95l.151.52a5,5,0,0,1-.872,4.649,12.862,12.862,0,0,0-2.392-4.138,33.672,33.672,0,0,1-4.251-6.035,7.084,7.084,0,0,1-.115-6.91c2.02-3.76,6.8-4.994,8.757-5.35A10.968,10.968,0,0,0,16.784,24.184Z"/><path d="M46.511,52.38a15.216,15.216,0,0,0,1-2.017,2.344,2.344,0,0,0-.92-2.917l-4.255-2.61.584-3.292a2.331,2.331,0,1,0-4.591-.811l-.646,3.633L35.5,46.415c-.02.019-.027.047-.045.067a.945.945,0,0,0-.075.067,3.7,3.7,0,0,0-.484,3.539l.753,1.969-.724,3.729a.987.987,0,0,0-1.047.821L33.416,59.4a1,1,0,0,0,.824,1.148L42.6,61.917a.994.994,0,0,0,1.148-.824l.458-2.788a1,1,0,0,0-.174-.745.985.985,0,0,0-.5-.347l.52-2.918A4.341,4.341,0,0,0,46.511,52.38ZM36.9,56.09l.764-3.933a.987.987,0,0,0-.048-.548l-.855-2.236a1.718,1.718,0,0,1-.1-.717l1.3.854c.044.037.093.065.139.1a3.154,3.154,0,0,0,.262,1.992,6.006,6.006,0,0,0,3.666,2.681l-.459,2.577Zm2.742-8.658c.007.009.016.017.024.026l.018.019a.333.333,0,0,1,.022.469.329.329,0,0,1-.228.109.346.346,0,0,1-.24-.085.929.929,0,0,0-.122-.095l-1.323-.869.772-.724Zm6.036,2.136a13.24,13.24,0,0,1-.861,1.751,2.227,2.227,0,0,1-1.661,1.116,4.023,4.023,0,0,1-3.019-1.762,1.189,1.189,0,0,1-.068-.7,2.317,2.317,0,0,0,1.121-.684A2.36,2.36,0,0,0,41.6,46.76l.013-.024,3.938,2.415A.334.334,0,0,1,45.676,49.568Zm-5.24-8.7a.328.328,0,0,1,.248-.055.333.333,0,0,1,.268.384L40.278,45l-.067.122-.529-.568.617-3.469A.329.329,0,0,1,40.436,40.867Zm1.505,18.915-6.39-1.05.134-.814,6.39,1.05Z"/></svg>