<?xml version="1.0" encoding="UTF-8"?>
<!DOCTYPE svg PUBLIC "-//W3C//DTD SVG 1.1//EN" "http://www.w3.org/Graphics/SVG/1.1/DTD/svg11.dtd">
<!-- Creator: CorelDRAW -->
<svg xmlns="http://www.w3.org/2000/svg" xml:space="preserve" width="1.70666in" height="1.70666in" version="1.1" style="shape-rendering:geometricPrecision; text-rendering:geometricPrecision; image-rendering:optimizeQuality; fill-rule:evenodd; clip-rule:evenodd"
viewBox="0 0 1707 1707"
 xmlns:xlink="http://www.w3.org/1999/xlink">
 <defs>
  <style type="text/css">
   <![CDATA[
    .fil0 {fill:#1F4188}
    .fil1 {fill:#FFCF00}
   ]]>
  </style>
 </defs>
 <g id="Layer_x0020_1">
  <metadata id="CorelCorpID_0Corel-Layer"/>
  <path class="fil0" d="M1213 1340c-6,0 -12,-2 -16,-6l-209 -209 -82 82c-6,6 -14,8 -22,6 -8,-2 -14,-8 -16,-16l-106 -407c-2,-8 0,-16 6,-22 6,-6 14,-8 22,-6l407 106c8,2 14,8 16,16 2,8 0,16 -6,22l-82 82 209 209c9,9 9,23 0,32l-105 105c-4,4 -10,6 -16,6zm-225 -270c6,0 12,2 16,7l209 208 72 -72 -208 -209c-5,-4 -7,-10 -7,-16 0,-6 2,-12 7,-16l70 -70 -331 -86 86 331 70 -70c4,-5 10,-7 16,-7z"/>
  <path class="fil0" d="M700 723c-6,0 -12,-2 -16,-7l-141 -141c-9,-8 -9,-23 0,-32 9,-9 24,-9 32,0l141 141c9,9 9,23 0,32 -4,5 -10,7 -16,7z"/>
  <path class="fil0" d="M795 650c-8,0 -15,-4 -20,-12l-99 -172c-6,-11 -3,-25 8,-31 11,-6 25,-2 31,8l100 173c6,11 2,24 -9,31 -3,2 -7,3 -11,3z"/>
  <path class="fil0" d="M906 604c-10,0 -19,-7 -22,-17l-52 -192c-3,-12 4,-25 16,-28 13,-3 25,4 28,16l52 192c3,12 -4,25 -16,28 -2,1 -4,1 -6,1z"/>
  <path class="fil0" d="M627 818c-4,0 -8,-1 -11,-3l-173 -100c-10,-6 -14,-20 -8,-31 6,-11 20,-14 31,-8l172 99c11,7 15,21 9,31 -4,8 -12,12 -20,12z"/>
  <path class="fil0" d="M581 929c-2,0 -4,-1 -6,-1l-192 -52c-12,-3 -19,-15 -16,-28 3,-12 16,-19 28,-16l192 52c12,3 19,16 16,28 -3,10 -12,17 -22,17z"/>
  <path class="fil0" d="M853 1707c-470,0 -853,-383 -853,-854 0,-470 383,-853 853,-853 471,0 854,383 854,853 0,471 -383,854 -854,854zm0 -1661c-445,0 -807,362 -807,807 0,446 362,808 807,808 446,0 808,-362 808,-808 0,-445 -362,-807 -808,-807z"/>
  <path class="fil1" d="M853 1585c-403,0 -732,-328 -732,-732 0,-403 329,-732 732,-732 404,0 732,329 732,732 0,404 -328,732 -732,732zm0 -1418c-378,0 -686,308 -686,686 0,379 308,687 686,687 379,0 687,-308 687,-687 0,-378 -308,-686 -687,-686z"/>
 </g>
</svg>
